# xmcd
# 
# Track frame offsets:
#     150
#     26260
#     32907
#     62585
#     93077
#     121210
#     137160
#     154009
#     170982
#     187682
#     204567
#     221840
#     229240
#     248190
#     255960
#     282015
#     294350
#     303037
#     329544
#     332152
# 
# Disc length: 4505
# 
# Revision: 0
# Processed by: cddbd v1.5.2PL0 Copyright (c) Steve Scherf et al.
# Submitted via: fre:ac v1.0.31
# 
DISCID=18119714
DTITLE=John Lennon - Imagine Complete Sessions  Disc 3
DYEAR=0
DGENRE=
TTITLE0=How Do You Sleep? Version 2
TTITLE1=How Do You Sleep? Vocal Overdub Session
TTITLE2=How Do You Sleep? Version 3
TTITLE3=How Do You Sleep? Alternate Take 1
TTITLE4=How Do You Sleep? Alternate Take 2
TTITLE5=How Do You Sleep? No String Acetate Version
TTITLE6=How? Take 2
TTITLE7=How? Take Unknown
TTITLE8=How? Altetnate Take 1
TTITLE9=How? Alternate Take 2
TTITLE10=How? Take 12
TTITLE11=How? Vocal Overdub Session
TTITLE12=Oh Yoko! Take 7
TTITLE13=Oh Yoko! Vocal Overdub Session
TTITLE14=Oh Yoko! Take 9
TTITLE15=I'm The Greatest Version 1
TTITLE16=I'm The Greatest Version 2
TTITLE17=Well (Baby Please Don't Go)
TTITLE18=Just A Little Story...
TTITLE19=San Francisco Bay Blues
EXTD=
EXTT0=
EXTT1=
EXTT2=
EXTT3=
EXTT4=
EXTT5=
EXTT6=
EXTT7=
EXTT8=
EXTT9=
EXTT10=
EXTT11=
EXTT12=
EXTT13=
EXTT14=
EXTT15=
EXTT16=
EXTT17=
EXTT18=
EXTT19=
PLAYORDER=
